<?xml version="1.0" encoding="UTF-8"?>
<svg id="uuid-55abc64a-793d-4da3-97bc-3b40c748e7e3" data-name="Layer 2" xmlns="http://www.w3.org/2000/svg" width="56.28" height="56.28" xmlns:xlink="http://www.w3.org/1999/xlink" viewBox="0 0 56.28 56.28">
  <defs>
    <clipPath id="uuid-225d52ad-ba24-4275-8eed-ca762509bc21">
      <rect x="6.16" y="6.16" width="43.97" height="43.97" style="fill: none;"/>
    </clipPath>
  </defs>
  <g id="uuid-34d56844-695c-4fdf-9c58-3ea0d154a024" data-name="Layer 1">
    <g>
      <rect width="56.28" height="56.28" rx="11.25" ry="11.25" style="fill: #f03c2e;"/>
      <g style="clip-path: url(#uuid-225d52ad-ba24-4275-8eed-ca762509bc21);">
        <path d="M49.29,26.18L30.1,6.99c-.26-.26-.57-.47-.92-.61-.34-.14-.71-.22-1.08-.22s-.74.07-1.08.22c-.34.14-.66.35-.92.61l-3.98,3.98,5.06,5.06c1.18-.41,2.52-.13,3.46.81.45.45.76,1.01.9,1.63s.11,1.26-.1,1.85l4.87,4.87c1.18-.41,2.54-.14,3.48.8.31.31.56.68.73,1.09.17.41.26.85.26,1.29,0,.44-.09.88-.26,1.29-.17.41-.42.78-.73,1.09-.31.31-.68.56-1.09.73-.41.17-.85.26-1.29.26-.44,0-.88-.09-1.29-.26-.41-.17-.78-.42-1.09-.73-.99-.99-1.23-2.45-.73-3.66l-4.55-4.55v11.96c.33.16.63.38.89.64.31.31.56.68.73,1.09.17.41.26.85.26,1.29s-.09.88-.26,1.29c-.17.41-.42.78-.73,1.09s-.68.56-1.09.73c-.41.17-.85.26-1.29.26s-.88-.09-1.29-.26c-.41-.17-.78-.42-1.09-.73-.31-.31-.56-.68-.73-1.09-.17-.41-.26-.85-.26-1.29s.09-.88.26-1.29c.17-.41.42-.78.73-1.09.33-.32.69-.57,1.1-.74v-12.07c-.4-.16-.78-.41-1.1-.73-.47-.47-.79-1.08-.92-1.73-.13-.66-.06-1.34.2-1.95l-4.99-4.98-13.16,13.15c-.26.26-.47.58-.61.92-.14.34-.22.71-.22,1.08s.07.74.22,1.08c.14.34.35.66.61.92l19.2,19.19c.26.26.57.47.92.61.34.14.71.22,1.08.22s.74-.07,1.08-.22c.34-.14.66-.35.92-.61l19.11-19.08c.26-.26.47-.58.61-.92.14-.34.22-.71.22-1.08s-.07-.74-.22-1.08c-.14-.34-.35-.66-.61-.92" style="fill: #fff;"/>
      </g>
    </g>
  </g>
</svg>