<?xml version="1.0" encoding="UTF-8"?>
<svg id="Layer_2" data-name="Layer 2" xmlns="http://www.w3.org/2000/svg" viewBox="0 0 57.85 56.89">
  <defs>
    <style>
      .cls-1 {
        fill-rule: evenodd;
      }
    </style>
  </defs>
  <g id="Layer_1-2" data-name="Layer 1">
    <path class="cls-1" d="M28.95,0C12.94,0,0,13.04,0,29.17c0,12.89,8.29,23.81,19.8,27.67,1.44.29,1.97-.63,1.97-1.4,0-.68-.05-2.99-.05-5.41-8.05,1.74-9.73-3.48-9.73-3.48-1.29-3.38-3.21-4.25-3.21-4.25-2.64-1.79.19-1.79.19-1.79,2.92.19,4.46,2.99,4.46,2.99,2.59,4.44,6.76,3.19,8.44,2.41.24-1.88,1.01-3.19,1.82-3.91-6.42-.68-13.18-3.19-13.18-14.39,0-3.19,1.15-5.79,2.97-7.82-.29-.72-1.29-3.72.29-7.73,0,0,2.44-.77,7.96,2.99,2.36-.64,4.79-.96,7.24-.97,2.44,0,4.94.34,7.24.97,5.51-3.77,7.96-2.99,7.96-2.99,1.58,4.01.57,7,.29,7.73,1.87,2.03,2.97,4.64,2.97,7.82,0,11.2-6.76,13.67-13.23,14.39,1.05.92,1.97,2.66,1.97,5.41,0,3.91-.05,7.05-.05,8.02,0,.77.53,1.69,1.97,1.4,11.5-3.86,19.8-14.78,19.8-27.67.05-16.13-12.94-29.17-28.9-29.17Z"/>
  </g>
</svg>